<svg width="30" height="30" viewBox="0 0 30 30" fill="none" xmlns="http://www.w3.org/2000/svg">
<path d="M18.2142 4.28564C18.2142 2.51044 16.7751 1.07135 14.9999 1.07135C13.2247 1.07135 11.7856 2.51044 11.7856 4.28564C11.7856 6.06084 13.2247 7.49992 14.9999 7.49992C16.7751 7.49992 18.2142 6.06084 18.2142 4.28564Z" fill="black" stroke="black" stroke-linecap="round" stroke-linejoin="round"/>
<path d="M18.2142 15C18.2142 13.2248 16.7751 11.7857 14.9999 11.7857C13.2247 11.7857 11.7856 13.2248 11.7856 15C11.7856 16.7752 13.2247 18.2143 14.9999 18.2143C16.7751 18.2143 18.2142 16.7752 18.2142 15Z" fill="black" stroke="black" stroke-linecap="round" stroke-linejoin="round"/>
<path d="M18.2142 25.7143C18.2142 23.9391 16.7751 22.5 14.9999 22.5C13.2247 22.5 11.7856 23.9391 11.7856 25.7143C11.7856 27.4895 13.2247 28.9286 14.9999 28.9286C16.7751 28.9286 18.2142 27.4895 18.2142 25.7143Z" fill="black" stroke="black" stroke-linecap="round" stroke-linejoin="round"/>
</svg>
