<svg width="45" height="40" viewBox="0 0 45 40" fill="none" xmlns="http://www.w3.org/2000/svg">
<path d="M30.5357 4.28572H35.3572C36.2096 4.28572 37.0272 4.58673 37.63 5.12255C38.2328 5.65837 38.5714 6.3851 38.5714 7.14286V35.7143C38.5714 36.472 38.2328 37.1988 37.63 37.7346C37.0272 38.2704 36.2096 38.5714 35.3572 38.5714H9.64287C8.79039 38.5714 7.97283 38.2704 7.37003 37.7346C6.76724 37.1988 6.42859 36.472 6.42859 35.7143V7.14286C6.42859 6.3851 6.76724 5.65837 7.37003 5.12255C7.97283 4.58673 8.79039 4.28572 9.64287 4.28572H14.4643" stroke="#000001" stroke-width="2" stroke-linecap="round" stroke-linejoin="round"/>
<path d="M27.3215 1.42857H17.6786C15.9034 1.42857 14.4644 2.70776 14.4644 4.28571V5.71429C14.4644 7.29224 15.9034 8.57143 17.6786 8.57143H27.3215C29.0967 8.57143 30.5358 7.29224 30.5358 5.71429V4.28571C30.5358 2.70776 29.0967 1.42857 27.3215 1.42857Z" stroke="#000001" stroke-width="2" stroke-linecap="round" stroke-linejoin="round"/>
<path d="M14.4644 15.7143H30.5358" stroke="#000001" stroke-width="2" stroke-linecap="round" stroke-linejoin="round"/>
<path d="M14.4644 22.8571H30.5358" stroke="#000001" stroke-width="2" stroke-linecap="round" stroke-linejoin="round"/>
<path d="M14.4644 30H30.5358" stroke="#000001" stroke-width="2" stroke-linecap="round" stroke-linejoin="round"/>
</svg>
